<svg xmlns="http://www.w3.org/2000/svg" width="56" height="56" fill="none"><rect width="48" height="48" x="4" y="4" fill="#F5F5F4" rx="24"/><path stroke="#518159" stroke-linecap="round" stroke-linejoin="round" stroke-width="2" d="M31 25h.01M31 31a6 6 0 1 0-5.946-5.193c.058.434.087.651.068.789a.852.852 0 0 1-.117.346c-.068.121-.187.24-.426.479l-5.11 5.11c-.173.173-.26.26-.322.36a.998.998 0 0 0-.12.29c-.027.115-.027.237-.027.482V35.4c0 .56 0 .84.109 1.054a1 1 0 0 0 .437.437C19.76 37 20.04 37 20.6 37h1.737c.245 0 .367 0 .482-.028a.998.998 0 0 0 .29-.12c.1-.061.187-.148.36-.32l5.11-5.111c.239-.239.358-.358.48-.426a.852.852 0 0 1 .345-.117c.138-.02.355.01.789.068.264.036.533.054.807.054Z"/><rect width="48" height="48" x="4" y="4" stroke="#E7EDE8" stroke-width="8" rx="24"/></svg>