<svg xmlns="http://www.w3.org/2000/svg" width="121" height="119" fill="none"><path fill="#fff" d="M110.185.068 2.971 0A2.903 2.903 0 0 0 .073 2.9L0 116.023a2.899 2.899 0 0 0 2.894 2.904L118.1 119a2.9 2.9 0 0 0 2.899-2.9v-8.52l-20.774-20.066a4.492 4.492 0 0 0-6.044-.18 4.512 4.512 0 0 0-1.311 4.932l2.845 8.001s3.107 11.702-12.46 14.029c0 0-3.112 0-7.782-3.123S42.821 88.547 42.821 88.547s-4.67-3.118-10.119-10.14c0 0-3.121-3.137-8.575-.024-5.448 3.118-15.562-.01-19.452-2.352 0 0 12.866-.281 23.353-13.243.987-1.222 4.674-5.456 3.116-5.456-1.558 0-7.38 2.139-7.38 2.139s5.803-14.053 16.724-13.83c4.283.087 7.002.785 13.235-10.91C59.956 23.033 82.553 4.34 110.185.067Z"/></svg>