<svg xmlns="http://www.w3.org/2000/svg" width="396" height="66" fill="none"><path fill="#fff" d="M59.765.037 1.612 0C.745 0 .039.711.039 1.587L0 63.497c0 .879.703 1.59 1.57 1.59l62.49.04a1.58 1.58 0 0 0 1.572-1.587v-4.663L54.364 47.895a2.42 2.42 0 0 0-3.279-.098 2.484 2.484 0 0 0-.711 2.699l1.543 4.379s1.685 6.404-6.758 7.678c0 0-1.688 0-4.22-1.71-2.534-1.709-17.713-12.383-17.713-12.383s-2.533-1.706-5.488-5.549c0 0-1.693-1.717-4.651-.013-2.955 1.706-8.441-.006-10.552-1.287 0 0 6.98-.154 12.668-7.248.535-.669 2.535-2.986 1.69-2.986-.845 0-4.003 1.17-4.003 1.17s3.147-7.69 9.071-7.568c2.323.047 3.798.43 7.179-5.972C32.52 12.606 44.778 2.375 59.765.037ZM107.278 7.29l-5.488 5.727c-.745.754-1.58.8-2.501.133-.922-.576-1.888-.889-2.898-.931-2.284 0-3.425 2.707-3.425 8.168v.088h5.488c1.186 0 1.976.844 1.976 1.908v7.635c0 1.064-.745 1.909-1.976 1.909h-5.575l-.176 31.294c0 1.287-.614 1.908-1.887 1.908H80.85c-1.318 0-1.977-.62-1.977-1.908V31.927h-3.6c-1.053 0-1.888-.8-1.888-1.909v-7.635c0-1.064.79-1.908 1.887-1.908h3.601v-.088c0-6.791 1.625-11.762 4.874-15.002C86.953 2.189 90.993.592 95.864.592c4.872 0 8.825 1.377 11.502 4.084.835.844.835 1.73-.087 2.62V7.29ZM109.074 62.096c-3.118-2.62-4.654-6.216-4.654-10.786 0-4.57 1.58-8.078 4.698-10.52 3.119-2.441 6.98-3.683 11.591-3.683 5.313 0 9.132 1.021 11.415 3.107v-2.176c0-5.194-2.283-7.813-6.848-7.813-3.118 0-6.102.711-9 2.176-1.142.489-2.063.356-2.766-.355l-5.489-5.46c-1.097-1.021-1.01-1.953.176-2.752 4.126-2.84 9.835-4.262 17.077-4.262 7.241 0 12.774 1.73 15.848 5.194 3.029 3.506 4.567 8.346 4.567 14.514v23.925c0 .932-.921 1.908-1.977 1.908h-7.199c-1.011 0-1.712-.265-2.063-.799l-1.625-2.308C130.893 64.67 126.767 66 120.489 66c-4.523 0-8.297-1.287-11.415-3.907v.003Zm23.048-10.608c0-1.552-.439-2.664-1.318-3.24-.879-.576-2.809-.844-5.795-.844-5.137 0-6.673 1.242-6.673 4.262 0 3.02 1.494 4.172 5.927 4.172 5.223 0 7.814-1.465 7.859-4.35ZM156.364 65.13c-.922 0-1.888-.977-1.888-1.908V22.383c0-.931.88-1.908 1.888-1.908h7.199c.966 0 1.67.266 2.152.844l1.536 2.264c.659-.977 1.801-1.908 3.336-2.752 1.535-.844 3.291-1.242 5.268-1.242 3.118 0 6.323 1.332 9.701 3.994.835.711.921 2.086.22 2.84l-6.409 6.435c-.79.8-1.536.89-2.239.266-1.625-1.2-3.074-1.82-4.391-1.82-2.853 0-4.785 2.44-4.785 6.48v25.435c0 .932-.966 1.908-1.887 1.908h-9.701v.003ZM244.46 24.867c3.029 3.506 4.523 7.814 4.523 12.83v25.525c0 1.064-.966 1.908-1.887 1.908h-9.701c-.922 0-1.888-.844-1.888-1.908V37.476c0-4.793-1.666-7.192-4.96-7.147-2.985 0-4.875 2.575-4.875 7.147v25.746c0 1.064-.879 1.908-1.887 1.908h-9.703c-.922 0-1.888-.844-1.888-1.908V37.476c0-4.793-1.624-7.192-4.916-7.147-2.984 0-4.874 2.575-4.874 7.147v25.746c0 .931-.966 1.908-1.887 1.908h-9.701c-.921 0-1.887-.977-1.887-1.908V22.383c0-.931.879-1.908 1.887-1.908h7.2c.966 0 1.666.266 2.149.844l1.536 2.264c2.107-2.664 4.785-3.994 7.989-3.994 3.953 0 7.024 1.688 9.263 5.106 1.494-1.863 3.16-3.195 5.05-3.952 1.887-.753 4.347-1.154 7.462-1.154 5.664 0 9.966 1.775 12.995 5.281v-.003ZM257.857 3.365c0-.931.879-1.908 1.887-1.908h9.704c.921 0 1.887.977 1.887 1.908V23.74c2.635-2.797 6.189-4.172 10.625-4.172 5.268 0 9.614 2.086 12.995 6.258 3.381 4.217 5.05 9.854 5.05 17.001 0 7.147-1.669 12.83-5.05 16.956-3.381 4.13-7.727 6.215-12.995 6.215-2.767 0-4.961-.265-6.585-.844-1.67-.578-3.25-1.597-4.741-3.15l-1.535 2.31c-.483.533-1.187.798-2.153.798h-7.199c-.921 0-1.887-.977-1.887-1.908V3.365h-.003Zm13.478 41.372c0 3.816.703 6.48 2.063 7.946 1.362 1.51 3.249 2.264 5.664 2.264 2.415 0 4.084-1.155 5.268-3.419 1.186-2.264 1.756-5.193 1.756-8.7 0-3.505-.572-6.435-1.756-8.744-1.186-2.264-2.942-3.418-5.268-3.418-5.136 0-7.727 3.328-7.727 9.987v4.084ZM312.32 58.959c-4.126-4.13-6.189-9.767-6.189-17.001 0-7.235 2.063-12.874 6.189-17.046 4.084-4.13 9.835-6.216 17.211-6.216 7.375 0 12.995 2.086 17.034 6.216 4.04 4.172 6.058 9.854 6.058 17.046s-2.018 12.871-6.058 17c-4.039 4.13-9.703 6.171-17.034 6.171-7.331 0-13.127-2.04-17.211-6.17Zm10.274-26.056c-1.67 2.263-2.502 5.28-2.502 9.055 0 8.256 3.16 12.386 9.439 12.386 6.278 0 9.131-4.75 9.131-12.386 0-7.636-3.029-12.428-9.131-12.428-2.985 0-5.313 1.109-6.937 3.373ZM394.296 20.472c1.449 0 2.019.976 1.536 2.218l-14.489 40.884c-.352 1.022-1.052 1.552-2.15 1.552h-9.79c-.966 0-1.669-.533-2.149-1.552l-14.4-40.884c-.572-1.377.087-2.218 1.536-2.218h9.79c1.097 0 1.801.533 2.152 1.552l7.99 22.728 7.945-22.728c.483-1.021 1.228-1.552 2.328-1.552h9.704-.003Z"/></svg>