<svg xmlns="http://www.w3.org/2000/svg" width="67" height="65" fill="none"><path fill="#262626" d="M60.31.037 1.766 0C.894 0 .183.708.183 1.58l-.04 61.64c0 .875.709 1.584 1.58 1.584l62.91.04c.874 0 1.583-.709 1.583-1.58V58.62L54.872 47.687a2.455 2.455 0 0 0-4.016 2.59l1.553 4.36s1.697 6.376-6.804 7.644c0 0-1.699 0-4.248-1.702-2.55-1.701-17.831-12.329-17.831-12.329S20.976 46.55 18 42.724c0 0-1.704-1.71-4.683-.013-2.975 1.699-8.497-.005-10.622-1.282 0 0 7.026-.153 12.752-7.216.54-.666 2.553-2.973 1.702-2.973-.85 0-4.03 1.166-4.03 1.166s3.168-7.658 9.132-7.536c2.339.047 3.824.428 7.227-5.946C32.883 12.551 45.222 2.364 60.31.037Z"/></svg>