<svg xmlns="http://www.w3.org/2000/svg" width="67" height="65" fill="none"><path fill="#064B11" d="M60.166.037 1.622 0C.75 0 .04.708.04 1.58L0 63.22c0 .875.708 1.584 1.58 1.584l62.91.04c.874 0 1.582-.709 1.582-1.58V58.62L54.728 47.687a2.455 2.455 0 0 0-4.016 2.59l1.554 4.36s1.696 6.376-6.804 7.644c0 0-1.7 0-4.25-1.702-2.55-1.701-17.83-12.329-17.83-12.329s-2.55-1.699-5.525-5.525c0 0-1.704-1.71-4.682-.013-2.976 1.699-8.498-.005-10.622-1.282 0 0 7.026-.153 12.752-7.216.539-.666 2.552-2.973 1.701-2.973-.85 0-4.03 1.166-4.03 1.166s3.169-7.658 9.132-7.536c2.339.047 3.824.428 7.227-5.946C32.74 12.551 45.078 2.364 60.166.037Z"/></svg>