<svg xmlns="http://www.w3.org/2000/svg" width="399" height="66" fill="none"><path fill="#064B11" d="M60.166.037 1.622 0C.75 0 .04.708.04 1.58L0 63.22c0 .875.708 1.584 1.58 1.584l62.91.04c.874 0 1.582-.709 1.582-1.58V58.62L54.728 47.687a2.455 2.455 0 0 0-4.016 2.59l1.554 4.36s1.696 6.376-6.804 7.644c0 0-1.7 0-4.25-1.702-2.55-1.701-17.83-12.329-17.83-12.329s-2.55-1.699-5.525-5.525c0 0-1.704-1.71-4.682-.013-2.976 1.699-8.498-.005-10.622-1.282 0 0 7.026-.153 12.752-7.216.539-.666 2.552-2.973 1.701-2.973-.85 0-4.03 1.166-4.03 1.166s3.169-7.658 9.132-7.536c2.339.047 3.824.428 7.227-5.946C32.74 12.551 45.078 2.364 60.166.037ZM107.998 7.259l-5.525 5.702c-.751.75-1.591.795-2.518.132-.928-.574-1.9-.885-2.918-.928-2.298 0-3.448 2.696-3.448 8.134v.087h5.525c1.195 0 1.99.84 1.99 1.9v7.602c0 1.06-.75 1.9-1.99 1.9h-5.612l-.177 31.158c0 1.282-.618 1.9-1.9 1.9H81.392c-1.326 0-1.99-.618-1.99-1.9V31.787h-3.625c-1.06 0-1.9-.795-1.9-1.9v-7.602c0-1.059.796-1.9 1.9-1.9h3.626v-.087c0-6.761 1.635-11.71 4.906-14.937C87.536 2.18 91.602.59 96.506.59c4.905 0 8.884 1.372 11.579 4.067.84.84.84 1.723-.087 2.608v-.005ZM109.805 61.826c-3.139-2.608-4.685-6.189-4.685-10.739 0-4.55 1.591-8.043 4.73-10.474 3.139-2.431 7.026-3.668 11.669-3.668 5.348 0 9.193 1.018 11.491 3.094v-2.166c0-5.171-2.298-7.78-6.893-7.78-3.14 0-6.144.709-9.061 2.167-1.149.487-2.077.355-2.785-.354l-5.525-5.435c-1.105-1.017-1.018-1.945.177-2.74 4.154-2.827 9.901-4.244 17.191-4.244 7.29 0 12.86 1.723 15.954 5.171 3.05 3.49 4.598 8.31 4.598 14.451V62.93c0 .928-.927 1.9-1.99 1.9h-7.248c-1.017 0-1.722-.264-2.076-.795l-1.636-2.3c-1.945 2.654-6.099 3.978-12.419 3.978-4.553 0-8.353-1.282-11.492-3.89v.003Zm23.203-10.562c0-1.546-.441-2.653-1.327-3.226-.885-.573-2.827-.84-5.834-.84-5.171 0-6.717 1.236-6.717 4.243 0 3.007 1.504 4.154 5.967 4.154 5.258 0 7.866-1.459 7.911-4.33ZM157.412 64.846c-.927 0-1.899-.973-1.899-1.9v-40.66c0-.928.885-1.9 1.899-1.9h7.248c.973 0 1.681.264 2.167.84l1.546 2.254c.663-.973 1.813-1.9 3.358-2.74 1.546-.84 3.314-1.237 5.303-1.237 3.14 0 6.366 1.327 9.767 3.977.84.708.927 2.077.222 2.827l-6.453 6.408c-.795.795-1.546.885-2.254.264-1.636-1.194-3.094-1.813-4.421-1.813-2.872 0-4.817 2.431-4.817 6.453v25.324c0 .928-.972 1.9-1.899 1.9h-9.767v.003ZM246.1 24.759c3.05 3.49 4.553 7.779 4.553 12.773v25.414c0 1.06-.972 1.9-1.9 1.9h-9.766c-.927 0-1.9-.84-1.9-1.9V37.313c0-4.773-1.678-7.161-4.994-7.116-3.004 0-4.907 2.563-4.907 7.116v25.633c0 1.06-.885 1.9-1.899 1.9h-9.769c-.928 0-1.9-.84-1.9-1.9V37.313c0-4.773-1.636-7.161-4.949-7.116-3.005 0-4.907 2.563-4.907 7.116v25.633c0 .928-.972 1.9-1.9 1.9h-9.766c-.927 0-1.9-.973-1.9-1.9v-40.66c0-.928.885-1.9 1.9-1.9h7.248c.972 0 1.678.264 2.164.84l1.546 2.254c2.122-2.653 4.817-3.977 8.043-3.977 3.98 0 7.071 1.68 9.325 5.084 1.503-1.855 3.181-3.181 5.084-3.934 1.9-.75 4.376-1.15 7.512-1.15 5.702 0 10.033 1.768 13.082 5.258v-.002ZM259.587 3.35c0-.927.885-1.9 1.9-1.9h9.768c.928 0 1.9.973 1.9 1.9v20.286c2.653-2.785 6.231-4.154 10.696-4.154 5.304 0 9.679 2.077 13.083 6.23 3.403 4.2 5.084 9.812 5.084 16.927 0 7.116-1.681 12.774-5.084 16.882-3.404 4.112-7.779 6.189-13.083 6.189-2.785 0-4.994-.264-6.629-.84-1.681-.577-3.271-1.591-4.772-3.137l-1.546 2.299c-.486.531-1.194.795-2.167.795h-7.248c-.927 0-1.9-.972-1.9-1.9V3.35h-.002Zm13.568 41.192c0 3.8.708 6.453 2.077 7.911 1.372 1.504 3.271 2.254 5.702 2.254s4.112-1.15 5.304-3.403c1.194-2.254 1.767-5.171 1.767-8.662 0-3.49-.576-6.408-1.767-8.706-1.195-2.254-2.963-3.404-5.304-3.404-5.171 0-7.779 3.314-7.779 9.943v4.067ZM314.415 58.702c-4.153-4.111-6.23-9.724-6.23-16.927 0-7.203 2.077-12.818 6.23-16.971 4.112-4.112 9.901-6.189 17.326-6.189 7.425 0 13.083 2.077 17.149 6.189 4.067 4.153 6.099 9.81 6.099 16.971s-2.032 12.816-6.099 16.927c-4.066 4.112-9.769 6.144-17.149 6.144-7.38 0-13.214-2.032-17.326-6.144Zm10.343-25.942c-1.681 2.254-2.519 5.258-2.519 9.015 0 8.22 3.182 12.332 9.502 12.332 6.321 0 9.193-4.73 9.193-12.332s-3.049-12.374-9.193-12.374c-3.004 0-5.348 1.105-6.983 3.359ZM396.941 20.383c1.459 0 2.032.972 1.546 2.21l-14.586 40.704c-.354 1.018-1.059 1.546-2.164 1.546h-9.856c-.972 0-1.68-.53-2.164-1.546l-14.496-40.705c-.576-1.371.087-2.209 1.546-2.209h9.856c1.105 0 1.813.531 2.167 1.546l8.043 22.629 7.998-22.63c.487-1.017 1.237-1.545 2.344-1.545h9.769-.003Z"/></svg>